<?xml version="1.0" standalone="no"?><!DOCTYPE svg PUBLIC "-//W3C//DTD SVG 1.1//EN" "http://www.w3.org/Graphics/SVG/1.1/DTD/svg11.dtd"><svg class="icon" width="512px" height="512.00px" viewBox="0 0 1024 1024" version="1.1" xmlns="http://www.w3.org/2000/svg"><path fill="#333333" d="M421.4 611.1s-63.9 0-63.9-80.2c0 0-3.8-40.1 43.3-57.3 0 0 0-47.8 43.3-36.3 0 0-1.9-72.6 69.6-80.2s84.6 51.6 84.6 51.6 86.5-40.1 112.8 61.1c0 0 1.9 15.3 28.2 5.7 26.3-9.6 26.3-84.1-77.1-177.7-111.3-87.3-265.5-22.1-304.8 24.8-33.5 34-137.7 193.1-0.8 332.9 52 53.1 124.2 81.4 198 79.7 0.7 0 1.5 0 2.2-0.1 70.9-1.8 192.7-21.5 350.1 171.9 6.8 8.4 1 21.1-9.7 21.1l-402.5-8.9s-127 3.1-240.7-90.4C139.2 720 60.2 597.7 116.7 353.2c85.2-249.5 360.2-368.6 595.3-231s215.9 411.4 215.5 429.7c0 0 9.4 63-65.8 63s-440.3-3.8-440.3-3.8z"  /></svg>