<?xml version="1.0" standalone="no"?><!DOCTYPE svg PUBLIC "-//W3C//DTD SVG 1.1//EN" "http://www.w3.org/Graphics/SVG/1.1/DTD/svg11.dtd"><svg class="icon" width="512px" height="510.50px" viewBox="0 0 1027 1024" version="1.1" xmlns="http://www.w3.org/2000/svg"><path fill="#333333" d="M 230.41 576.537 c -12.0909 9.72886 -25.0459 23.9153 -28.8049 41.9832 c -5.12007 24.6642 -1.06578 55.5431 22.7271 79.7536 c 28.8265 29.3666 72.6388 37.396 91.5564 38.7786 c 51.4024 3.72303 106.189 -21.7621 147.481 -50.8335 c 16.1884 -11.4211 43.8987 -34.3571 70.3848 -69.7367 c -59.3669 -30.6412 -133.475 -64.5518 -212.703 -61.232 c -40.4709 1.70669 -69.4558 10.0961 -90.6418 21.2868 Z m 752.867 135.556 a 509.436 509.436 0 0 0 40.7301 -200.093 c 0 -282.31 -229.669 -512 -512.007 -512 S 0 229.683 0 511.993 c 0 282.346 229.669 512.007 512.007 512.007 c 170.388 0 321.499 -83.7215 414.625 -212.127 c -87.9918 -43.7402 -233.017 -115.738 -322.356 -159.298 c -42.6313 48.5867 -105.649 97.3102 -176.841 118.489 c -44.7196 13.3007 -85.0393 18.3775 -127.202 9.75766 c -41.7383 -8.55506 -72.4731 -28.092 -90.397 -47.6937 c -9.13116 -9.9881 -19.6161 -22.6983 -27.199 -37.8136 c 0.712921 1.91553 1.20261 3.05332 1.20261 3.05332 s -4.35674 -7.51808 -7.69811 -19.5009 a 86.1699 86.1699 0 0 1 -3.34137 -18.1543 a 93.8464 93.8464 0 0 1 -0.201634 -13.0342 c -0.374464 -7.71251 -0.064811 -15.7923 1.67068 -24.0665 c 4.18391 -20.2498 12.8182 -43.8051 35.1708 -65.6896 c 49.062 -48.0466 114.773 -50.6318 148.813 -50.4302 c 50.423 0.29525 138.048 22.3526 211.817 48.4499 C 590.501 512.425 603.614 465.869 612.075 434.839 H 305.31 V 401.67 h 157.52 v -66.3377 h -190.688 v -33.1688 h 190.688 v -66.3161 c 0 -9.10235 1.80031 -16.5844 16.5844 -16.5844 h 74.6119 v 82.9005 h 207.302 v 33.1688 H 554.034 v 66.3377 h 165.823 S 703.2 494.501 651.135 585.985 c 115.558 41.2846 278.133 104.864 332.142 126.108 Z"  /></svg>