<?xml version="1.0" standalone="no"?><!DOCTYPE svg PUBLIC "-//W3C//DTD SVG 1.1//EN" "http://www.w3.org/Graphics/SVG/1.1/DTD/svg11.dtd"><svg class="icon" width="512px" height="512.00px" viewBox="0 0 1024 1024" version="1.1" xmlns="http://www.w3.org/2000/svg"><path fill="#333333" d="M512 0C229.228 0 0 229.228 0 512c0 282.745 229.228 512 512 512s512-229.255 512-512C1024 229.228 794.772 0 512 0z m226.856 637.063s-16.208 44.22-45.945 83.94c0 0 53.127 18.056 48.64 64.984 0 0 1.779 52.346-113.462 48.735 0 0-81.07-6.32-105.377-40.61h-21.424c-24.306 34.304-105.35 40.61-105.35 40.61-115.281 3.61-113.476-48.735-113.476-48.735-4.5-46.928 48.627-64.983 48.627-64.983-29.71-39.72-45.918-83.941-45.918-83.941-72.058 116.44-64.85-16.25-64.85-16.25 13.528-78.524 70.239-129.967 70.239-129.967-8.111-71.316 21.612-83.94 21.612-83.94C318.41 186.286 508.025 190.14 512 190.247c3.988-0.107 193.576-3.96 199.828 216.644 0 0 29.71 12.638 21.612 83.94 0 0 56.738 51.443 70.238 129.968 0 0.013 7.195 132.702-64.822 16.263z m0 0"  /></svg>