<?xml version="1.0" standalone="no"?><!DOCTYPE svg PUBLIC "-//W3C//DTD SVG 1.1//EN" "http://www.w3.org/Graphics/SVG/1.1/DTD/svg11.dtd"><svg class="icon" width="512px" height="512.00px" viewBox="0 0 1024 1024" version="1.1" xmlns="http://www.w3.org/2000/svg"><path fill="#333333" d="M425.353846 617.550769c-2.363077-2.363077-4.726154-3.938462-7.876923-5.513846-3.150769-1.575385-6.301538-3.150769-10.24-3.938461-3.938462-0.787692-7.876923-0.787692-12.603077 0-6.301538 0.787692-11.815385 2.363077-16.541538 6.301538s-8.664615 7.876923-11.815385 13.390769c-3.150769 4.726154-3.938462 10.24-3.938461 15.753846 0 2.363077 0 4.726154 0.787692 7.089231 0.787692 2.363077 1.575385 3.938462 3.150769 5.513846 0.787692 1.575385 2.363077 3.150769 3.938462 4.726154 1.575385 1.575385 3.150769 3.150769 5.513846 3.938462 2.363077 0.787692 3.938462 1.575385 6.301538 2.363077 2.363077 0.787692 4.726154 1.575385 7.089231 1.575384h7.876923c6.301538-0.787692 11.815385-2.363077 17.329231-5.513846s9.452308-7.089231 12.603077-11.815385c3.150769-4.726154 4.726154-10.24 4.726154-14.966153 0-3.150769-0.787692-6.301538-1.575385-9.452308-0.787692-4.726154-2.363077-7.876923-4.726154-9.452308zM456.073846 590.769231c-3.938462-0.787692-7.089231 0.787692-11.027692 3.938461l-2.363077 3.15077-2.363077 2.363076-1.575385 3.15077c-0.787692 0.787692-0.787692 2.363077-0.787692 3.938461v3.150769c0 0.787692 0 1.575385 0.787692 3.15077l1.575385 3.150769c1.575385 3.150769 3.938462 4.726154 7.876923 4.726154s7.089231-0.787692 10.24-3.150769c2.363077-2.363077 3.150769-3.938462 4.726154-6.301539 1.575385-2.363077 1.575385-4.726154 2.363077-7.089231 0-2.363077 0-4.726154-1.575385-6.301538-1.575385-5.513846-4.726154-7.876923-7.876923-7.876923z"  /><path fill="#333333" d="M512 0C229.218462 0 0 229.218462 0 512s229.218462 512 512 512 512-229.218462 512-512S794.781538 0 512 0z m211.101538 638.030769c-13.390769 29.144615-37.021538 53.563077-69.316923 74.043077-33.083077 20.48-68.529231 35.446154-106.338461 43.323077-37.809231 8.664615-74.830769 11.027692-110.276923 7.876923-21.267692-1.575385-41.747692-3.938462-61.44-7.876923-19.692308-3.150769-39.384615-9.452308-60.652308-17.329231-21.267692-7.876923-39.384615-17.329231-55.138461-29.144615-15.753846-11.027692-29.144615-25.993846-40.172308-44.110769-11.027692-18.116923-18.116923-38.596923-21.267692-62.227693v-14.966153c-0.787692-10.24 3.150769-25.993846 11.027692-46.473847 7.876923-20.48 19.692308-40.96 35.446154-62.227692l7.876923-11.815385c5.513846-7.089231 14.178462-16.541538 24.418461-28.356923 11.027692-11.815385 22.055385-23.630769 34.658462-35.446153 12.603077-12.603077 27.569231-23.630769 44.898461-35.446154 17.329231-11.027692 34.658462-19.692308 51.2-25.206154 14.178462-4.726154 25.993846-7.876923 37.809231-8.664616 11.027692-0.787692 19.692308 0 26.781539 2.363077 7.089231 2.363077 12.603077 5.513846 17.32923 9.452308s7.876923 8.664615 10.24 14.966154c2.363077 6.301538 3.938462 11.815385 4.726154 17.329231 0.787692 4.726154 0.787692 10.24 0.787693 15.753846-0.787692 2.363077-0.787692 5.513846-2.363077 9.452308-0.787692 3.938462-1.575385 7.089231-1.575385 8.664615 0 2.363077-0.787692 3.938462-0.787692 7.089231 0 2.363077 0 3.938462 0.787692 4.726154 0.787692 0.787692 2.363077 1.575385 3.938462 2.363076 1.575385 0.787692 3.938462 0.787692 7.08923 0.787693 3.150769-0.787692 7.089231-1.575385 11.815385-3.150769l9.452308-4.726154c6.301538-2.363077 14.178462-4.726154 23.630769-7.876923 9.452308-2.363077 19.692308-4.726154 30.72-6.301539 11.027692-1.575385 22.055385-1.575385 32.295384 0 11.027692 2.363077 19.692308 6.301538 25.993847 13.390769 3.938462 3.938462 7.089231 7.876923 8.664615 12.603077 2.363077 4.726154 3.938462 9.452308 3.938462 13.39077 0.787692 3.938462 0.787692 8.664615 0 13.390769s-0.787692 8.664615-1.575385 11.815384c-0.787692 3.150769-1.575385 6.301538-3.150769 9.452308l-3.15077 6.301539c-0.787692 0.787692-0.787692 1.575385-1.575384 2.363076l-2.363077 3.938462c-1.575385 2.363077-0.787692 4.726154 0.787692 7.876923 2.363077 3.150769 7.089231 4.726154 14.178462 6.301539 5.513846 0.787692 12.603077 3.150769 19.692307 6.301538 7.089231 3.150769 14.966154 8.664615 23.63077 15.753846 8.664615 7.089231 14.966154 15.753846 20.48 25.206154 5.513846 9.452308 7.876923 21.267692 7.876923 36.233846 0.787692 15.753846-3.150769 31.507692-11.027693 48.836923z m-24.418461-213.464615c-3.150769-33.083077-22.843077-44.898462-60.652308-36.233846-4.726154 0-8.664615-1.575385-11.815384-4.726154-3.150769-3.150769-4.726154-7.089231-4.726154-12.603077 0-3.150769 0.787692-5.513846 2.363077-7.876923 1.575385-2.363077 3.938462-4.726154 6.301538-6.301539 2.363077-1.575385 5.513846-2.363077 8.664616-2.363077 11.027692-1.575385 22.843077-1.575385 36.233846 0.787693 44.110769 7.876923 63.803077 38.596923 57.501538 93.735384 0 0.787692 0 1.575385-0.787692 2.363077-0.787692 2.363077-1.575385 4.726154-3.150769 7.089231-1.575385 2.363077-3.150769 3.938462-5.513847 5.513846-3.150769 0.787692-6.301538 0.787692-8.664615 0.787693-4.726154 0-8.664615-1.575385-11.815385-4.726154-3.150769-3.150769-4.726154-7.089231-4.726153-12.603077 0.787692-7.089231 1.575385-14.178462 0.787692-22.843077z m128.393846-6.301539c-0.787692 17.329231-3.938462 34.658462-9.452308 53.563077-2.363077 16.541538-10.24 24.418462-23.630769 24.418462-4.726154 0-8.664615-0.787692-12.603077-1.575385s-6.301538-3.150769-8.664615-6.301538c-2.363077-3.150769-3.938462-6.301538-3.938462-11.027693 0-2.363077 0-3.938462 0.787693-7.08923 0.787692-2.363077 0.787692-4.726154 1.575384-6.301539 0.787692-1.575385 0.787692-3.938462 1.575385-5.513846s0.787692-3.150769 0.787692-3.938461v-1.575385c7.876923-25.993846 5.513846-53.563077-7.089231-81.92-6.301538-10.24-13.390769-18.904615-22.055384-26.781539-8.664615-7.876923-16.541538-13.390769-25.206154-18.116923-8.664615-3.938462-16.541538-7.876923-25.206154-11.027692-8.664615-3.150769-15.753846-4.726154-22.843077-5.513846-7.089231-0.787692-12.603077-0.787692-17.329231-0.787692s-7.876923 0-9.452307 0.787692c-1.575385 0.787692-3.938462 1.575385-5.513846 2.363077-2.363077 0.787692-3.938462 1.575385-6.301539 1.575384-1.575385 0-3.938462 0.787692-5.513846 0.787693-1.575385 0.787692-3.150769 0.787692-3.150769 0.787692h-2.363077c-7.089231 0-12.603077-2.363077-17.329231-7.089231-4.726154-4.726154-7.089231-11.027692-7.089231-18.116923 0-5.513846 1.575385-10.24 5.513846-14.966154 3.150769-4.726154 7.876923-7.876923 12.603077-8.664615l0.787693-0.787692 0.787692-1.575385c0.787692-0.787692 0.787692-0.787692 1.575385-0.787692 35.446154-7.089231 63.803077-7.876923 85.070769-3.150769 10.24 2.363077 19.692308 5.513846 29.144615 9.452307 9.452308 3.938462 18.904615 8.664615 29.144616 15.753846 10.24 6.301538 18.904615 13.390769 27.56923 22.055385 7.876923 7.876923 15.753846 17.329231 22.055385 29.144615 6.301538 11.027692 11.027692 23.630769 14.178461 36.233847 0.787692 14.178462 2.363077 29.144615 1.575385 45.686153z"  /><path fill="#333333" d="M576.590769 512c-36.233846-19.692308-80.344615-28.356923-132.332307-25.993846-52.775385 2.363077-96.886154 15.753846-132.332308 40.96-36.233846 24.418462-54.350769 54.350769-54.350769 88.221538 0 34.658462 18.116923 63.015385 54.350769 85.858462 36.233846 22.843077 80.344615 32.295385 132.332308 29.932308 51.2-2.363077 94.523077-17.329231 131.544615-44.898462 37.021538-27.569231 55.138462-59.076923 55.138461-93.735385 0-33.870769-18.116923-60.652308-54.350769-80.344615z m-49.624615 117.366154c-2.363077 11.815385-6.301538 22.055385-13.390769 29.932308-16.541538 21.267692-38.596923 35.446154-66.166154 41.747692-27.569231 6.301538-56.713846 1.575385-89.009231-14.178462-5.513846-3.150769-10.24-6.301538-13.390769-11.027692-3.938462-3.938462-6.301538-7.876923-8.664616-11.815385-1.575385-3.938462-3.150769-7.876923-3.938461-11.815384s-1.575385-7.089231-1.575385-8.664616v-8.664615c0-3.150769 0-7.876923 0.787693-14.178462s1.575385-12.603077 3.150769-19.692307c1.575385-7.089231 4.726154-14.178462 8.664615-22.055385 4.726154-7.089231 9.452308-14.178462 15.753846-20.48s14.966154-12.603077 25.993846-17.329231c11.027692-4.726154 23.630769-7.876923 37.809231-9.452307 19.692308-2.363077 37.021538-0.787692 51.987693 4.726154 14.966154 5.513846 26.781538 13.390769 33.870769 23.630769 7.876923 10.24 13.390769 21.267692 16.541538 33.870769 3.938462 11.027692 3.938462 23.630769 1.575385 35.446154z"  /></svg>